<?xml version="1.0" encoding="UTF-8"?>
<svg xmlns="http://www.w3.org/2000/svg" version="1.1" viewBox="0 0 50 50">
  <defs>
    <style>
      .cls-1 {
        fill: #10368f;
      }
    </style>
  </defs>
  <!-- Generator: Adobe Illustrator 28.6.0, SVG Export Plug-In . SVG Version: 1.2.0 Build 709)  -->
  <g>
    <g id="Layer_1">
      <g id="Cloud_2">
        <path class="cls-1" d="M13.5,40.5c.3-1.1.6-2.3,1-3.3.4-.9.8-1.7,1.5-2.4s1.5-1,2.4-1.1c.6,0,1.2,0,1.8,0,.7,0,1.3.2,1.9.5,1.3.5,2.6,1.5,2.7,3.1,0,.3.4.3.4,0-.2-1.4-1.2-2.5-2.4-3.1-.6-.3-1.3-.5-1.9-.7s-1.3-.2-2-.2c-1,0-2,.3-2.8.9s-1.3,1.4-1.7,2.4c-.6,1.2-.9,2.5-1.2,3.8,0,.2.3.4.4.1h0Z"/>
        <path class="cls-1" d="M25.2,37.4c.9-.8,1.9-1.5,3-2,1.2-.6,2.4-1.1,3.7-1.3,1.1-.2,2.4-.3,3.5,0s2.1,1.4,2.4,2.6c.2.9,0,1.9-.3,2.8-.2.7-.5,1.4-.8,2.1-.1.2.2.4.3.2.3-.6.6-1.3.8-2,.2-.8.4-1.7.4-2.5,0-1.5-.9-2.7-2.1-3.3-.6-.3-1.2-.5-1.8-.6s-1.2,0-1.8,0c-1.3.2-2.6.6-3.9,1.2-1.3.6-2.5,1.4-3.6,2.3-.2.2,0,.5.3.3h0Z"/>
        <path class="cls-1" d="M13.4,39.9c-.8-.4-1.7-.8-2.5-1.2-.3-.2-.7-.4-1.1-.3-.3.1-.4.5-.3.8,0,.7.3,1.4.6,2,.3.6.6,1.2,1.1,1.8.9,1.1,2,1.9,3.3,2.4,1.5.5,3.1.5,4.7.3,1.9-.2,3.7-.6,5.6-.3.2,0,.2-.4,0-.4-1.6-.2-3.1,0-4.7.2s-3.1.4-4.6,0c-2.5-.5-4.6-2.5-5.4-5,0-.3-.2-.7-.2-1,0-.1,0-.3.2-.4.2,0,.4.1.6.2.9.4,1.7.8,2.6,1.2.2.1.4-.2.2-.3h0Z"/>
        <path class="cls-1" d="M24.6,45.3c1.7.8,3.7,1.1,5.6.9s3.5-.8,5-2c.7-.6,1.6-1.3,1.8-2.4,0-.3-.3-.4-.4-.1-.1.8-.8,1.5-1.4,2-.7.5-1.4,1-2.1,1.3-1.7.7-3.5.9-5.3.7-1-.1-2-.4-2.9-.8-.2-.1-.4.2-.2.3h0Z"/>
        <path class="cls-1" d="M13.5,40.5c.3-1.1.6-2.3,1-3.3.4-.9.8-1.7,1.5-2.4s1.5-1,2.4-1.1c.6,0,1.2,0,1.8,0,.7,0,1.3.2,1.9.5,1.3.5,2.6,1.5,2.7,3.1,0,.3.4.3.4,0-.2-1.4-1.2-2.5-2.4-3.1-.6-.3-1.3-.5-1.9-.7s-1.3-.2-2-.2c-1,0-2,.3-2.8.9s-1.3,1.4-1.7,2.4c-.6,1.2-.9,2.5-1.2,3.8,0,.2.3.4.4.1h0Z"/>
        <path class="cls-1" d="M25.2,37.4c.9-.8,1.9-1.5,3-2,1.2-.6,2.4-1.1,3.7-1.3,1.1-.2,2.4-.3,3.5,0s2.1,1.4,2.4,2.6c.2.9,0,1.9-.3,2.8-.2.7-.5,1.4-.8,2.1-.1.2.2.4.3.2.3-.6.6-1.3.8-2,.2-.8.4-1.7.4-2.5,0-1.5-.9-2.7-2.1-3.3-.6-.3-1.2-.5-1.8-.6s-1.2,0-1.8,0c-1.3.2-2.6.6-3.9,1.2-1.3.6-2.5,1.4-3.6,2.3-.2.2,0,.5.3.3h0Z"/>
        <path class="cls-1" d="M13.4,39.9c-.8-.4-1.7-.8-2.5-1.2-.3-.2-.7-.4-1.1-.3-.3.1-.4.5-.3.8,0,.7.3,1.4.6,2,.3.6.6,1.2,1.1,1.8.9,1.1,2,1.9,3.3,2.4,1.5.5,3.1.5,4.7.3,1.9-.2,3.7-.6,5.6-.3.2,0,.2-.4,0-.4-1.6-.2-3.1,0-4.7.2s-3.1.4-4.6,0c-2.5-.5-4.6-2.5-5.4-5,0-.3-.2-.7-.2-1,0-.1,0-.3.2-.4.2,0,.4.1.6.2.9.4,1.7.8,2.6,1.2.2.1.4-.2.2-.3h0Z"/>
        <path class="cls-1" d="M24.6,45.3c1.7.8,3.7,1.1,5.6.9s3.5-.8,5-2c.7-.6,1.6-1.3,1.8-2.4,0-.3-.3-.4-.4-.1-.1.8-.8,1.5-1.4,2-.7.5-1.4,1-2.1,1.3-1.7.7-3.5.9-5.3.7-1-.1-2-.4-2.9-.8-.2-.1-.4.2-.2.3h0Z"/>
      </g>
      <g id="Cloud">
        <path class="cls-1" d="M23,29.7c-1-.1-1.8-1.2-2.2-2-.6-1.1-1.1-2.3-1.3-3.5-.4-2.5.2-5.2,1.3-7.5,1-2,2.5-3.8,4.3-5.1,1.9-1.3,4.1-1.9,6.3-1.7s4.5,1,6.3,2.6c.2.2.4.4.7.6.1.1.3,0,.3-.1.1-1.1.8-2,1.4-2.8s1.3-1.6,2-2.4c1.4-1.4,3-2.7,4.8-3.2,1.7-.5,3.7-.3,5.2.8,1.3.9,2.1,2.5,2.4,4.1.4,1.9.1,3.9-.7,5.5,0,.1,0,.3.2.3,1.6.1,3,.9,4.1,2,1.2,1.2,2.2,3.1,2.1,4.9,0,1-.5,2-1.4,2.4-.2,0-.2.4,0,.4,1.4,0,2.9.9,3.2,2.4.3,1.3-.7,2.3-1.7,2.8-.6.3-1.2.5-1.9.7-.8.2-1.6.4-2.4.5-1.6.2-3.3.3-4.9.4-1.7,0-3.3.1-5,0-1.6,0-3.2-.4-4.8-1-3-1-5.9-2.6-9.1-3-1.5-.2-3.1-.1-4.6.4-1.2.5-2.4,1.3-3.7,1.5-.3,0-.7,0-1,0-.2,0-.2.4,0,.4,1.4.1,2.7-.5,3.9-1.1.7-.3,1.4-.6,2.1-.8.8-.2,1.7-.2,2.5-.2,3.3.2,6.4,1.9,9.5,3,1.6.6,3.2,1,4.9,1.1s3.4,0,5.1,0c1.7,0,3.4-.2,5-.4.8-.1,1.7-.3,2.5-.5.7-.2,1.3-.4,1.9-.7,1-.5,2-1.5,1.9-2.7,0-1.5-1.4-2.7-2.7-3.1-.3,0-.7-.1-1-.1v.4c.9-.3,1.4-1.1,1.6-2,.3-1.1,0-2.2-.3-3.2-.7-1.7-1.9-3.2-3.4-4.1-.8-.5-1.8-.8-2.7-.8l.2.3c1.5-3,1.2-7.4-1.3-9.8-1.5-1.3-3.4-1.7-5.3-1.4-2,.3-3.7,1.5-5.2,2.9-.9.8-1.7,1.8-2.4,2.8-.7,1-1.5,2-1.6,3.2h.3c-1.8-1.9-4-3-6.4-3.3s-4.7.1-6.8,1.3c-2,1.2-3.6,3-4.8,5-1.2,2.3-1.9,5-1.7,7.6.1,1.4.5,2.7,1.1,3.9.5,1,1.1,2.1,2.1,2.6.2.1.5.2.7.2s.2-.4,0-.4h0Z"/>
      </g>
    </g>
  </g>
</svg>