<?xml version="1.0" encoding="UTF-8"?>
<svg xmlns="http://www.w3.org/2000/svg" version="1.1" viewBox="0 0 421.3 332">
  <defs>
    <style>
      .cls-1 {
        fill: #f5bbd0;
      }

      .cls-2 {
        fill: #10368f;
      }
    </style>
  </defs>
  <!-- Generator: Adobe Illustrator 28.6.0, SVG Export Plug-In . SVG Version: 1.2.0 Build 709)  -->
  <g>
    <g id="Layer_1">
      <g id="Cloud_2">
        <path class="cls-2" d="M32,275.8c2.2-8.5,4.5-17,7.9-25.1,2.8-6.6,6.4-13,11.8-17.9s12.2-7.4,19.3-8.2c4.7-.5,9.4-.3,14.1.3,5.2.6,10.4,1.7,15.4,3.6,10.1,3.8,20.4,11.5,21.7,23,.2,1.9,3.2,1.9,3,0-1.2-10.9-9.3-19-18.7-23.7-4.8-2.4-10-4-15.2-5s-10.7-1.6-16-1.5c-8,.2-16,2.1-22.5,6.9s-10.6,10.9-13.9,17.8c-4.4,9.2-7.1,19.1-9.6,29-.5,1.9,2.4,2.7,2.9.8h0Z"/>
        <path class="cls-2" d="M124.7,252.7c7-6.1,15.1-11,23.5-15.1,9.2-4.5,19-8.1,29-10.1,9.1-1.9,18.8-2.6,27.7.7s17.1,10.4,19.1,19.9c1.5,7-.4,14.2-2.2,20.9-1.5,5.6-3.6,10.8-6.3,16-.9,1.7,1.7,3.2,2.6,1.5,2.5-4.8,4.6-9.7,6.1-14.9,1.8-6.2,3.5-12.6,3.4-19.1-.3-11-7.4-19.9-16.8-25-4.5-2.4-9.4-4-14.4-4.4s-9.7-.1-14.5.6c-10.6,1.5-20.9,4.9-30.6,9.2-10.2,4.6-20.2,10.3-28.6,17.7-1.5,1.3.7,3.4,2.1,2.1h0Z"/>
        <path class="cls-2" d="M31.1,271.6c-6.6-3-13.2-6-19.7-9-2.5-1.1-5.8-3.2-8.6-2-2.3,1-2.9,3.7-2.7,6,.3,5,2.3,10.2,4.4,14.8,2.2,4.8,5.1,9.2,8.5,13.2,6.9,8.1,15.9,14.3,25.9,17.8,12.1,4.1,25,3.8,37.5,2.5,14.8-1.5,29.6-4.2,44.5-2.5,1.9.2,1.9-2.8,0-3-12.4-1.5-24.9.2-37.2,1.7s-24.4,2.8-36.4.4c-19.6-3.9-36.7-18.6-42.7-37.9-.7-2.4-1.6-5-1.6-7.6,0-1,.1-2.4,1.3-2.7,1.4-.4,3.4.9,4.6,1.5,6.9,3.1,13.8,6.3,20.6,9.4,1.7.8,3.3-1.8,1.5-2.6h0Z"/>
        <path class="cls-2" d="M120.2,312.1c13.8,6.1,29.2,8.3,44.2,6.8s28.1-6.4,39.9-15.1c5.8-4.3,12.7-10.1,14.1-17.7.3-1.9-2.6-2.7-2.9-.8-1.1,6.3-6.6,11.2-11.5,15-5.2,4.1-11,7.5-17.1,10-13.2,5.4-27.8,7-41.9,5.4-8-.9-15.9-3-23.2-6.2-1.8-.8-3.3,1.8-1.5,2.6h0Z"/>
        <path class="cls-1" d="M32,275.8c2.2-8.5,4.5-17,7.9-25.1,2.8-6.6,6.4-13,11.8-17.9s12.2-7.4,19.3-8.2c4.7-.5,9.4-.3,14.1.3,5.2.6,10.4,1.7,15.4,3.6,10.1,3.8,20.4,11.5,21.7,23,.2,1.9,3.2,1.9,3,0-1.2-10.9-9.3-19-18.7-23.7-4.8-2.4-10-4-15.2-5s-10.7-1.6-16-1.5c-8,.2-16,2.1-22.5,6.9s-10.6,10.9-13.9,17.8c-4.4,9.2-7.1,19.1-9.6,29-.5,1.9,2.4,2.7,2.9.8h0Z"/>
        <path class="cls-1" d="M124.7,252.7c7-6.1,15.1-11,23.5-15.1,9.2-4.5,19-8.1,29-10.1,9.1-1.9,18.8-2.6,27.7.7s17.1,10.4,19.1,19.9c1.5,7-.4,14.2-2.2,20.9-1.5,5.6-3.6,10.8-6.3,16-.9,1.7,1.7,3.2,2.6,1.5,2.5-4.8,4.6-9.7,6.1-14.9,1.8-6.2,3.5-12.6,3.4-19.1-.3-11-7.4-19.9-16.8-25-4.5-2.4-9.4-4-14.4-4.4s-9.7-.1-14.5.6c-10.6,1.5-20.9,4.9-30.6,9.2-10.2,4.6-20.2,10.3-28.6,17.7-1.5,1.3.7,3.4,2.1,2.1h0Z"/>
        <path class="cls-1" d="M31.1,271.6c-6.6-3-13.2-6-19.7-9-2.5-1.1-5.8-3.2-8.6-2-2.3,1-2.9,3.7-2.7,6,.3,5,2.3,10.2,4.4,14.8,2.2,4.8,5.1,9.2,8.5,13.2,6.9,8.1,15.9,14.3,25.9,17.8,12.1,4.1,25,3.8,37.5,2.5,14.8-1.5,29.6-4.2,44.5-2.5,1.9.2,1.9-2.8,0-3-12.4-1.5-24.9.2-37.2,1.7s-24.4,2.8-36.4.4c-19.6-3.9-36.7-18.6-42.7-37.9-.7-2.4-1.6-5-1.6-7.6,0-1,.1-2.4,1.3-2.7,1.4-.4,3.4.9,4.6,1.5,6.9,3.1,13.8,6.3,20.6,9.4,1.7.8,3.3-1.8,1.5-2.6h0Z"/>
        <path class="cls-1" d="M120.2,312.1c13.8,6.1,29.2,8.3,44.2,6.8s28.1-6.4,39.9-15.1c5.8-4.3,12.7-10.1,14.1-17.7.3-1.9-2.6-2.7-2.9-.8-1.1,6.3-6.6,11.2-11.5,15-5.2,4.1-11,7.5-17.1,10-13.2,5.4-27.8,7-41.9,5.4-8-.9-15.9-3-23.2-6.2-1.8-.8-3.3,1.8-1.5,2.6h0Z"/>
      </g>
      <g id="Cloud">
        <path class="cls-1" d="M107.6,194.7c-8.3-1-13.9-8.8-17.9-15.4-4.9-8.3-8.6-17.1-10.2-26.7-3.1-19.1,1.2-39.4,10.1-56.5,7.9-15.4,19.8-28.9,34.4-38.2,15-9.6,32.7-14.2,50.5-13.1,18.2,1.1,36.1,7.9,50.4,19.3,1.8,1.4,3.6,3,5.2,4.5,1,1,2.4.2,2.6-1.1,1-8.1,6.3-14.9,11.2-21.1s10-12.1,15.6-17.7c10.8-10.7,23.5-20,38.4-23.9,13.9-3.6,29.2-2.4,41.3,5.8,10.4,7.1,16.7,18.8,19.2,30.9,2.9,14,1,29.1-5.7,41.7-.5,1,.1,2.2,1.3,2.3,12.4.8,24,6.6,32.9,15.2,9.6,9.4,17.3,23.4,16.4,37.1-.5,7.2-4.2,15.2-11.4,17.9-1.5.6-1.4,3,.4,2.9,10.8-.1,22.7,7.1,25.6,17.9,2.7,9.9-5.3,17.4-13.4,21.4-4.7,2.4-9.9,3.7-15,4.9-6.3,1.5-12.7,2.7-19.1,3.6-12.9,1.8-26,2.6-39,3-13.2.4-26.4,1-39.5.4-13-.6-25.6-3.2-38-7.2-24-7.9-46.8-19.7-72.1-22.9-12.2-1.5-24.7-.9-36.3,3.4-9.9,3.6-19,9.7-29.6,11.2-2.7.4-5.5.4-8.3.1-1.9-.2-1.9,2.8,0,3,11.3,1.1,21.1-3.9,31.1-8.4,5.5-2.5,11.1-4.6,17-5.8,6.5-1.3,13.1-1.6,19.7-1.2,26.6,1.7,50.7,14.3,75.5,22.7,12.6,4.3,25.5,7.2,38.9,7.9,13.6.8,27.3.1,40.9-.3s26.8-1.2,40.1-3.1c6.6-.9,13.2-2.1,19.7-3.7,5.3-1.3,10.5-2.8,15.4-5.2,8-3.9,15.7-10.9,15.4-20.6-.3-11.3-10.9-20.6-21.2-23.4-2.6-.7-5.3-1-8-1l.4,2.9c6.5-2.5,10.9-8.4,12.7-15,2.2-8,.6-16.8-2.5-24.3-5.2-12.9-14.9-24-27.3-30.5-6.7-3.6-14-5.7-21.6-6.2l1.3,2.3c12.1-22.8,9.9-56-10.5-73.6-11.5-9.9-27.2-12.9-42-10.5-15.8,2.6-29.7,11.3-41.3,21.9-6.9,6.3-13.1,13.4-19,20.7s-11.6,14.7-12.8,24.1l2.6-1.1c-14.1-13.1-32-21.5-51-24-18.5-2.5-37.5,1-53.9,10s-29,22.3-38,37.9c-9.9,17.2-15.2,37.5-13.4,57.3.9,10.4,4.1,19.9,9,29.1,3.9,7.4,9.1,15.8,17.1,19.3,1.8.8,3.6,1.3,5.6,1.5s1.9-2.8,0-3h0Z"/>
      </g>
    </g>
  </g>
</svg>