<?xml version="1.0" encoding="UTF-8"?>
<svg xmlns="http://www.w3.org/2000/svg" version="1.1" viewBox="0 0 50 59.6">
  <defs>
    <style>
      .cls-1 {
        stroke-width: .2px;
      }

      .cls-1, .cls-2 {
        stroke: #10368f;
        stroke-miterlimit: 10;
      }

      .cls-1, .cls-3 {
        fill: #10368f;
      }

      .cls-2 {
        fill: none;
      }
    </style>
  </defs>
  <!-- Generator: Adobe Illustrator 28.6.0, SVG Export Plug-In . SVG Version: 1.2.0 Build 709)  -->
  <g>
    <g id="Layer_1">
      <g id="Layer_1-2" data-name="Layer_1">
        <g id="Layer_1-2">
          <g id="Layer_1-2-2" data-name="Layer_1-2">
            <g id="Sun">
              <path class="cls-2" d="M10.7,31.3c-1.4-4.6,2.5-10.9,7.9-12.5s10.2,2.8,11.6,7.4"/>
            </g>
            <g id="Cloud">
              <path class="cls-1" d="M8.4,46.9c-1,0-1.6-.9-2-1.7-.6-.9-1-1.9-1.1-2.9-.3-2.1.2-4.3,1.1-6.2.9-1.7,2.3-3.2,4-4.2,1.7-1,3.7-1.6,5.8-1.4s4.1.9,5.7,2.1c.2.2.4.3.6.5s.2,0,.3-.2c0-.9.7-1.7,1.3-2.3.6-.6,1.1-1.3,1.8-2,1.2-1.2,2.7-2.2,4.4-2.6,1.6-.4,3.3-.2,4.8.6,1.2.8,1.9,2.1,2.2,3.4.3,1.5,0,3.2-.6,4.6,0,0,0,.2.2.2,1.5,0,2.8.7,3.8,1.7,1.1,1,2,2.5,1.9,4,0,.8-.5,1.7-1.3,2-.2,0-.2.3,0,.3,1.2,0,2.6.8,2.9,2,.3,1.1-.6,1.9-1.5,2.4-.6.2-1.1.4-1.7.6-.7.2-1.5.3-2.2.4-1.5.2-3,.2-4.5.3s-3,0-4.5,0-2.9-.3-4.4-.8c-2.8-.9-5.3-2.1-8.3-2.5-1.4-.2-2.8,0-4.1.4-1.1.4-2.2,1-3.4,1.3h-1c-.2,0-.2.3,0,.3,1.3.2,2.4-.4,3.6-.9.6-.2,1.3-.5,1.9-.6.7-.2,1.5-.2,2.3-.2,3.1.2,5.8,1.6,8.7,2.4,1.5.5,2.9.8,4.5.9s3.2,0,4.7,0,3.1-.2,4.6-.3c.7,0,1.5-.2,2.3-.4.6-.2,1.2-.3,1.8-.6.9-.5,1.8-1.2,1.8-2.3s-1.2-2.3-2.4-2.5h-.9v.3c.8-.2,1.3-.9,1.5-1.7.2-.9,0-1.8-.3-2.7-.6-1.4-1.7-2.6-3.2-3.3s-1.6-.6-2.5-.7l.2.2c1.4-2.5,1.1-6.2-1.2-8-1.3-1.1-3.2-1.4-4.9-1.2-1.8.3-3.4,1.3-4.8,2.4-.8.7-1.5,1.5-2.2,2.3-.6.8-1.3,1.6-1.5,2.6l.3-.2c-1.6-1.4-3.6-2.4-5.8-2.6-2.2-.3-4.6-.3-6.4.7-1.9,1-3,2.8-4.1,4.6-1.1,1.9-1.8,4.1-1.5,6.2,0,1.1.5,2.2,1.1,3.2.5.8,1.2,1.8,2.1,2.2.2,0,.2.1.5.1s.2-.3,0-.3h0v.2h0Z"/>
            </g>
            <g id="ray1">
              <path class="cls-3" d="M.3,25.9c2.2.3,4.4.9,6.4,1.9.2,0,.4-.2.2-.3-1.6-.7-3.2-1.3-4.9-1.7-.5,0-1-.2-1.5-.2-.2,0-.3.3,0,.3h-.2Z"/>
            </g>
            <g id="ray2">
              <path class="cls-3" d="M10.4,21.4c-.8-1.3-1.8-2.4-2.8-3.5-.2-.2-.4,0-.2.2,1,1.1,1.9,2.3,2.8,3.5.2.2.4,0,.3-.2,0,0,0,0,0,0Z"/>
            </g>
            <g id="ray3">
              <path class="cls-3" d="M17.7,18c0-1.8,0-3.7,0-5.5,0-.6,0-1-.2-1.6,0-.2-.4-.2-.3,0,.2,1.8.3,3.6.3,5.5v1.6c0,.2.3.2.3,0h0Z"/>
            </g>
            <g id="ray4">
              <path class="cls-3" d="M26,17.8c.7-1.3.8-1.4,1.7-2.7.2-.2-.2-.3-.3-.2-1,1.3-1.4,1.8-2.1,3.3,0,.2.2.5.3.3l.4-.7Z"/>
            </g>
            <g id="ray5">
              <path class="cls-3" d="M29.6,22.7c1.9-.7,3.6-1.7,5.3-2.8.5-.3.9-.6,1.4-.9.2-.2,0-.4-.2-.2-1.5,1.2-3.2,2.2-4.9,3-.5.2-1,.5-1.5.6-.2,0,0,.4,0,.3h0Z"/>
            </g>
          </g>
        </g>
      </g>
    </g>
  </g>
</svg>