<?xml version="1.0" encoding="UTF-8"?>
<svg xmlns="http://www.w3.org/2000/svg" version="1.1" viewBox="0 0 409.1 290">
  <defs>
    <style>
      .cls-1 {
        fill: #f5bbd0;
      }

      .cls-2 {
        fill: none;
        stroke: #f5bbd0;
        stroke-miterlimit: 10;
        stroke-width: 3px;
      }

      .cls-3 {
        fill: #fff;
      }
    </style>
  </defs>
  <!-- Generator: Adobe Illustrator 28.6.0, SVG Export Plug-In . SVG Version: 1.2.0 Build 709)  -->
  <g>
    <g id="Layer_1">
      <g id="Sun">
        <ellipse class="cls-2" cx="184.5" cy="81.2" rx="88.1" ry="79.7"/>
      </g>
      <g id="Cloud">
        <path class="cls-3" d="M83.8,261.1c-11.3-1.2-18.8-14.4-24-25.3-7.3-15.3-8-33.6-4.3-50.4,7.2-33.5,31.7-62.1,62.1-72.7,30.4-10.6,65.7-2.8,89.9,19.7.9-7.8,5.5-14.3,10.2-20.3,12.5-16,26.7-31.2,44.5-39.6,17.8-8.4,39.8-8.9,55.7,3.1,20.8,15.7,25,49.8,12.3,73.4,20.4,1.2,39.6,15.8,47.6,36.1,2.6,6.6,4.1,14,2.8,21.1s-5.8,13.7-12.1,16c8.4-.2,16.9,3.8,22.5,10.6,2.7,3.3,4.9,7.4,5.1,11.8.7,12.2-12.1,19.8-23.1,23-26,7.5-53.3,8.2-80.2,8.9-13.3.3-26.7.6-39.9-1.4-21.5-3.4-41.7-13-62.3-20.4-20.7-7.4-43-12.4-64.1-6.4-15.5,4.4-26.6,14.5-42.6,12.9h0Z"/>
        <path class="cls-1" d="M83.8,259.6c-8.3-1-13.9-8.8-17.9-15.4-4.9-8.3-8.6-17.1-10.2-26.7-3.1-19.1,1.2-39.4,10.1-56.5,7.9-15.4,19.8-28.9,34.4-38.2,15-9.6,32.7-14.2,50.5-13.1s36.1,7.9,50.4,19.3c1.8,1.4,3.6,3,5.2,4.5,1,1,2.4.2,2.6-1.1,1-8.1,6.3-14.9,11.2-21.1s10-12.1,15.6-17.7c10.8-10.7,23.5-20,38.4-23.9,13.9-3.6,29.2-2.4,41.3,5.8,10.4,7.1,16.7,18.8,19.2,30.9,2.9,14,1,29.1-5.7,41.7-.5,1,.1,2.2,1.3,2.3,12.4.8,24,6.6,32.9,15.2,9.6,9.4,17.3,23.4,16.4,37.1-.5,7.2-4.2,15.2-11.4,17.9-1.5.6-1.4,3,.4,2.9,10.8-.1,22.7,7.1,25.6,17.9,2.7,9.9-5.3,17.4-13.4,21.4-4.7,2.4-9.9,3.7-15,5-6.3,1.5-12.7,2.7-19.1,3.6-12.9,1.8-26,2.5-39,3-13.2.4-26.4,1-39.5.5s-25.6-3.2-38-7.2c-24-7.9-46.8-19.7-72.1-22.9-12.2-1.5-24.7-.9-36.3,3.4-9.9,3.6-19,9.7-29.6,11.2-2.7.4-5.5.4-8.3.1-1.9-.2-1.9,2.8,0,3,11.3,1.1,21.2-3.9,31.1-8.4,5.5-2.5,11.1-4.6,17-5.8,6.5-1.3,13.1-1.6,19.7-1.2,26.6,1.7,50.6,14.3,75.5,22.7,12.6,4.3,25.5,7.2,38.9,7.9,13.6.8,27.3.1,40.9-.3,13.4-.4,26.8-1.2,40.1-3.1,6.6-.9,13.2-2.1,19.7-3.7,5.3-1.3,10.5-2.8,15.4-5.2,8-4,15.7-10.9,15.4-20.6-.3-11.3-10.9-20.6-21.2-23.4-2.6-.7-5.3-1-8-1l.4,2.9c6.5-2.5,10.9-8.4,12.7-15,2.2-8,.6-16.8-2.5-24.3-5.2-12.9-14.9-24-27.3-30.5-6.7-3.6-14-5.7-21.6-6.2l1.3,2.3c12.1-22.8,9.9-56-10.5-73.6-11.5-9.9-27.2-12.9-42-10.5-15.8,2.6-29.7,11.3-41.3,21.9-6.9,6.3-13.1,13.4-19,20.7s-11.6,14.7-12.8,24.1l2.6-1.1c-14.1-13.1-32-21.5-51-24.1s-37.5,1-53.9,10-29,22.3-38,37.9c-9.9,17.2-15.2,37.5-13.4,57.3.9,10.4,4.1,19.9,9,29.1,3.9,7.4,9.1,15.8,17.1,19.3,1.8.8,3.6,1.3,5.6,1.5s1.9-2.8,0-3h0Z"/>
      </g>
    </g>
  </g>
</svg>