<?xml version="1.0" encoding="UTF-8"?>
<svg xmlns="http://www.w3.org/2000/svg" version="1.1" viewBox="0 0 50 50">
  <defs>
    <style>
      .cls-1 {
        fill: none;
        stroke: #f5bbd0;
        stroke-miterlimit: 10;
        stroke-width: 3px;
      }

      .cls-2 {
        fill: #10368f;
      }

      .cls-3 {
        display: none;
      }
    </style>
  </defs>
  <!-- Generator: Adobe Illustrator 28.6.0, SVG Export Plug-In . SVG Version: 1.2.0 Build 709)  -->
  <g>
    <g id="Layer_1">
      <g id="Layer_1-2" data-name="Layer_1">
        <g>
          <g id="Cloud_2" class="cls-3">
            <g>
              <path class="cls-2" d="M5.5,37c.3-1,.5-2,.9-2.9.3-.8.8-1.5,1.4-2.1.6-.6,1.4-.9,2.3-1h1.6c.6,0,1.2.2,1.8.4,1.2.4,2.4,1.3,2.5,2.7,0,.2.4.2.4,0-.1-1.3-1.1-2.2-2.2-2.8-.6-.3-1.2-.5-1.8-.6s-1.2-.2-1.9-.2-1.9.2-2.6.8-1.2,1.3-1.6,2.1c-.5,1.1-.8,2.2-1.1,3.4,0,.2.3.3.3,0h0v.2Z"/>
              <path class="cls-2" d="M16.3,34.3c.8-.7,1.8-1.3,2.7-1.8,1.1-.5,2.2-.9,3.4-1.2,1.1-.2,2.2-.3,3.2,0,1,.4,2,1.2,2.2,2.3.2.8,0,1.6-.3,2.4-.2.7-.4,1.3-.7,1.9s.2.4.3.2c.3-.6.5-1.1.7-1.7.2-.7.4-1.5.4-2.2,0-1.3-.9-2.3-2-2.9-.5-.3-1.1-.5-1.7-.5h-1.7c-1.2.2-2.4.6-3.6,1.1s-2.4,1.2-3.4,2.1c-.2,0,0,.4.2.2h.3Z"/>
              <path class="cls-2" d="M5.4,36.5c-.8-.3-1.5-.7-2.3-1-.3,0-.7-.4-1-.2-.3,0-.3.4-.3.7,0,.6.3,1.2.5,1.7.3.6.6,1.1,1,1.5.8.9,1.9,1.7,3,2.1,1.4.5,2.9.4,4.4.3,1.7-.2,3.5-.5,5.2-.3.2,0,.2-.3,0-.3-1.5-.2-2.9,0-4.4.2s-2.9.3-4.3,0c-2.3-.4-4.3-2.2-5-4.4,0-.3-.2-.6-.2-.9s0-.3,0-.3c.2,0,.4,0,.5.2.8.4,1.6.7,2.4,1.1.2,0,.4-.2.2-.3h.2Z"/>
              <path class="cls-2" d="M15.8,41.2c1.6.7,3.4,1,5.2.8s3.3-.7,4.7-1.8c.7-.5,1.5-1.2,1.6-2.1,0-.2-.3-.3-.3,0-.1.7-.8,1.3-1.3,1.7-.6.5-1.3.9-2,1.2-1.5.6-3.3.8-4.9.6-.9,0-1.9-.3-2.7-.7-.2,0-.4.2-.2.3h-.1Z"/>
            </g>
            <g>
              <path class="cls-2" d="M5.5,37c.3-1,.5-2,.9-2.9.3-.8.8-1.5,1.4-2.1.6-.6,1.4-.9,2.3-1h1.6c.6,0,1.2.2,1.8.4,1.2.4,2.4,1.3,2.5,2.7,0,.2.4.2.4,0-.1-1.3-1.1-2.2-2.2-2.8-.6-.3-1.2-.5-1.8-.6s-1.2-.2-1.9-.2-1.9.2-2.6.8-1.2,1.3-1.6,2.1c-.5,1.1-.8,2.2-1.1,3.4,0,.2.3.3.3,0h0v.2Z"/>
              <path class="cls-2" d="M16.3,34.3c.8-.7,1.8-1.3,2.7-1.8,1.1-.5,2.2-.9,3.4-1.2,1.1-.2,2.2-.3,3.2,0,1,.4,2,1.2,2.2,2.3.2.8,0,1.6-.3,2.4-.2.7-.4,1.3-.7,1.9s.2.4.3.2c.3-.6.5-1.1.7-1.7.2-.7.4-1.5.4-2.2,0-1.3-.9-2.3-2-2.9-.5-.3-1.1-.5-1.7-.5h-1.7c-1.2.2-2.4.6-3.6,1.1s-2.4,1.2-3.4,2.1c-.2,0,0,.4.2.2h.3Z"/>
              <path class="cls-2" d="M5.4,36.5c-.8-.3-1.5-.7-2.3-1-.3,0-.7-.4-1-.2-.3,0-.3.4-.3.7,0,.6.3,1.2.5,1.7.3.6.6,1.1,1,1.5.8.9,1.9,1.7,3,2.1,1.4.5,2.9.4,4.4.3,1.7-.2,3.5-.5,5.2-.3.2,0,.2-.3,0-.3-1.5-.2-2.9,0-4.4.2s-2.9.3-4.3,0c-2.3-.4-4.3-2.2-5-4.4,0-.3-.2-.6-.2-.9s0-.3,0-.3c.2,0,.4,0,.5.2.8.4,1.6.7,2.4,1.1.2,0,.4-.2.2-.3h.2Z"/>
              <path class="cls-2" d="M15.8,41.2c1.6.7,3.4,1,5.2.8s3.3-.7,4.7-1.8c.7-.5,1.5-1.2,1.6-2.1,0-.2-.3-.3-.3,0-.1.7-.8,1.3-1.3,1.7-.6.5-1.3.9-2,1.2-1.5.6-3.3.8-4.9.6-.9,0-1.9-.3-2.7-.7-.2,0-.4.2-.2.3h-.1Z"/>
            </g>
          </g>
          <g id="Sun" class="cls-3">
            <ellipse class="cls-1" cx="25.1" cy="22.3" rx="10.3" ry="9.3"/>
          </g>
          <g id="Cloud">
            <path class="cls-2" d="M9.1,26.2c-1-.1-1.6-1-2.1-1.8-.6-1-1-2-1.2-3.1-.4-2.2,0-4.6,1.2-6.6.9-1.8,2.3-3.4,4-4.4,1.8-1.1,3.8-1.6,5.9-1.5,2.1.1,4.2.9,5.9,2.2.2.2.4.3.6.5.1.1.3,0,.3-.1.1-.9.7-1.7,1.3-2.4.6-.7,1.2-1.4,1.8-2.1,1.3-1.2,2.8-2.3,4.5-2.8,1.6-.4,3.4-.3,4.8.7,1.2.8,2,2.2,2.2,3.6.3,1.6,0,3.4-.7,4.9,0,.1,0,.3.2.3,1.4,0,2.8.8,3.8,1.8,1.1,1.1,2,2.7,1.9,4.3,0,.8-.5,1.8-1.3,2.1-.2,0-.2.3,0,.3,1.3,0,2.7.8,3,2.1.3,1.2-.6,2-1.6,2.5s-1.2.4-1.8.6c-.7.2-1.5.3-2.2.4-1.5.2-3,.3-4.6.3s-3.1.1-4.6,0-3-.4-4.4-.8c-2.8-.9-5.5-2.3-8.4-2.7-1.4-.2-2.9,0-4.2.4-1.2.4-2.2,1.1-3.5,1.3h-1c-.2,0-.2.3,0,.3,1.3.1,2.5-.4,3.6-1,.6-.3,1.3-.5,2-.7.8-.2,1.5-.2,2.3-.1,3.1.2,5.9,1.7,8.8,2.6,1.5.5,3,.8,4.6.9s3.2,0,4.8,0,3.1-.1,4.7-.4c.8-.1,1.5-.2,2.3-.4.6-.2,1.2-.3,1.8-.6.9-.5,1.8-1.3,1.8-2.4s-1.3-2.4-2.5-2.7c-.3,0-.6-.1-.9-.1v.3c.8-.3,1.3-1,1.5-1.7.3-.9,0-1.9-.3-2.8-.6-1.5-1.7-2.8-3.2-3.5-.8-.4-1.6-.7-2.5-.7l.2.3c1.4-2.6,1.2-6.5-1.2-8.6-1.4-1.2-3.2-1.5-4.9-1.2-1.8.3-3.5,1.3-4.8,2.5-.8.7-1.5,1.6-2.2,2.4-.7.8-1.4,1.7-1.5,2.8h.3c-1.6-1.6-3.7-2.6-6-2.9s-4.4.1-6.3,1.2c-1.9,1-3.4,2.6-4.4,4.4-1.2,2-1.8,4.4-1.6,6.7,0,1.2.5,2.3,1.1,3.4.5.9,1.1,1.8,2,2.2.2,0,.4.1.7.2s.2-.3,0-.3h0Z"/>
          </g>
          <g id="raindrop_3">
            <path class="cls-2" d="M34.5,30.8c1.3,1.9,2.4,3.8,3.6,5.7.3.5.6,1.1.9,1.7,0,.2.4,0,.3-.2-1.1-2-2.3-3.9-3.5-5.8-.3-.5-.7-1.1-1.1-1.6,0-.2-.4,0-.3.2h0Z"/>
            <path class="cls-2" d="M25.9,32.3c.8,2.2,1.8,4.4,2.9,6.5.1.2.4,0,.3-.2-1.1-2.1-2-4.2-2.8-6.4,0-.2-.4,0-.3,0h-.1Z"/>
            <path class="cls-2" d="M17.5,28.5c.5,2.1,1.2,4.1,2.1,6.1.3.6.5,1.1.8,1.6.1.2.4,0,.3-.2-1-1.9-1.8-3.8-2.4-5.9-.2-.6-.3-1.2-.4-1.7,0-.2-.4-.1-.3,0h-.1Z"/>
          </g>
        </g>
      </g>
    </g>
  </g>
</svg>