<?xml version="1.0" encoding="UTF-8"?>
<svg xmlns="http://www.w3.org/2000/svg" xmlns:xlink="http://www.w3.org/1999/xlink" version="1.1" viewBox="0 0 400.12 50">
  <defs>
    <style>
      .cls-1 {
        fill: #f5bbd0;
      }

      .cls-2 {
        fill: none;
        stroke: #f5bbd0;
        stroke-miterlimit: 10;
        stroke-width: 3px;
      }

      .cls-3 {
        fill: #fff;
      }

      .cls-4 {
        fill: #10368f;
      }

      .cls-5 {
        display: none;
      }
    </style>
  </defs>
  <!-- Generator: Adobe Illustrator 28.6.0, SVG Export Plug-In . SVG Version: 1.2.0 Build 709)  -->
  <g>
    <g id="pallete">
      <image width="564" height="441" transform="translate(178.94 546.55) scale(.51)" xlink:href="Cute Weather App.jpeg"/>
    </g>
    <g id="Cloud_2" class="cls-5">
      <g>
        <path class="cls-4" d="M87.3,330.8c2.18-8.48,4.48-17.01,7.9-25.09,2.79-6.6,6.44-13.03,11.82-17.87s12.18-7.45,19.29-8.18c4.68-.48,9.42-.27,14.08.31,5.22.65,10.45,1.72,15.39,3.58,10.11,3.8,20.36,11.54,21.67,23.02.22,1.9,3.22,1.92,3,0-1.24-10.9-9.27-18.97-18.74-23.69-4.83-2.41-9.96-3.96-15.25-4.96s-10.66-1.63-16.04-1.51c-7.97.18-15.99,2.13-22.51,6.88s-10.6,10.9-13.86,17.75c-4.38,9.2-7.09,19.12-9.62,28.96-.48,1.87,2.41,2.67,2.89.8h0Z"/>
        <path class="cls-4" d="M180,307.63c7.02-6.12,15.13-10.99,23.47-15.07,9.2-4.51,18.96-8.07,29.02-10.12,9.1-1.85,18.84-2.63,27.69.68s17.07,10.36,19.13,19.91c1.51,6.98-.37,14.19-2.22,20.91-1.54,5.61-3.62,10.84-6.28,16.01-.88,1.71,1.71,3.23,2.59,1.51,2.47-4.8,4.56-9.69,6.06-14.88,1.78-6.16,3.54-12.61,3.36-19.08-.3-10.98-7.35-19.95-16.79-25-4.47-2.39-9.4-3.99-14.45-4.44s-9.68-.12-14.46.55c-10.59,1.48-20.88,4.89-30.62,9.23-10.23,4.56-20.16,10.29-28.62,17.67-1.46,1.27.67,3.39,2.12,2.12h0Z"/>
        <path class="cls-4" d="M86.39,326.55c-6.58-3-13.16-6-19.74-8.99-2.53-1.15-5.75-3.25-8.59-1.95-2.28,1.04-2.88,3.69-2.72,5.98.35,5.04,2.31,10.21,4.43,14.75,2.22,4.76,5.14,9.17,8.54,13.17,6.87,8.07,15.91,14.33,25.94,17.77,12.06,4.13,25.03,3.77,37.54,2.5,14.76-1.51,29.59-4.24,44.46-2.48,1.91.23,1.9-2.78,0-3-12.42-1.47-24.88.2-37.21,1.67s-24.42,2.78-36.43.43c-19.64-3.85-36.72-18.65-42.69-37.87-.74-2.39-1.59-5.05-1.61-7.57,0-1,.11-2.42,1.28-2.71,1.45-.35,3.38.94,4.64,1.51,6.88,3.13,13.76,6.27,20.64,9.4,1.74.79,3.27-1.79,1.51-2.59h0Z"/>
        <path class="cls-4" d="M175.5,367.07c13.77,6.09,29.2,8.29,44.16,6.79s28.15-6.39,39.86-15.06c5.84-4.33,12.7-10.13,14.05-17.7.34-1.89-2.55-2.7-2.89-.8-1.13,6.32-6.65,11.24-11.47,15-5.21,4.06-10.98,7.54-17.09,10.05-13.17,5.4-27.82,6.99-41.92,5.35-7.96-.93-15.85-2.98-23.19-6.22-1.75-.77-3.28,1.81-1.51,2.59h0Z"/>
      </g>
      <g>
        <path class="cls-4" d="M87.3,330.8c2.18-8.48,4.48-17.01,7.9-25.09,2.79-6.6,6.44-13.03,11.82-17.87s12.18-7.45,19.29-8.18c4.68-.48,9.42-.27,14.08.31,5.22.65,10.45,1.72,15.39,3.58,10.11,3.8,20.36,11.54,21.67,23.02.22,1.9,3.22,1.92,3,0-1.24-10.9-9.27-18.97-18.74-23.69-4.83-2.41-9.96-3.96-15.25-4.96s-10.66-1.63-16.04-1.51c-7.97.18-15.99,2.13-22.51,6.88s-10.6,10.9-13.86,17.75c-4.38,9.2-7.09,19.12-9.62,28.96-.48,1.87,2.41,2.67,2.89.8h0Z"/>
        <path class="cls-4" d="M180,307.63c7.02-6.12,15.13-10.99,23.47-15.07,9.2-4.51,18.96-8.07,29.02-10.12,9.1-1.85,18.84-2.63,27.69.68s17.07,10.36,19.13,19.91c1.51,6.98-.37,14.19-2.22,20.91-1.54,5.61-3.62,10.84-6.28,16.01-.88,1.71,1.71,3.23,2.59,1.51,2.47-4.8,4.56-9.69,6.06-14.88,1.78-6.16,3.54-12.61,3.36-19.08-.3-10.98-7.35-19.95-16.79-25-4.47-2.39-9.4-3.99-14.45-4.44s-9.68-.12-14.46.55c-10.59,1.48-20.88,4.89-30.62,9.23-10.23,4.56-20.16,10.29-28.62,17.67-1.46,1.27.67,3.39,2.12,2.12h0Z"/>
        <path class="cls-4" d="M86.39,326.55c-6.58-3-13.16-6-19.74-8.99-2.53-1.15-5.75-3.25-8.59-1.95-2.28,1.04-2.88,3.69-2.72,5.98.35,5.04,2.31,10.21,4.43,14.75,2.22,4.76,5.14,9.17,8.54,13.17,6.87,8.07,15.91,14.33,25.94,17.77,12.06,4.13,25.03,3.77,37.54,2.5,14.76-1.51,29.59-4.24,44.46-2.48,1.91.23,1.9-2.78,0-3-12.42-1.47-24.88.2-37.21,1.67s-24.42,2.78-36.43.43c-19.64-3.85-36.72-18.65-42.69-37.87-.74-2.39-1.59-5.05-1.61-7.57,0-1,.11-2.42,1.28-2.71,1.45-.35,3.38.94,4.64,1.51,6.88,3.13,13.76,6.27,20.64,9.4,1.74.79,3.27-1.79,1.51-2.59h0Z"/>
        <path class="cls-4" d="M175.5,367.07c13.77,6.09,29.2,8.29,44.16,6.79s28.15-6.39,39.86-15.06c5.84-4.33,12.7-10.13,14.05-17.7.34-1.89-2.55-2.7-2.89-.8-1.13,6.32-6.65,11.24-11.47,15-5.21,4.06-10.98,7.54-17.09,10.05-13.17,5.4-27.82,6.99-41.92,5.35-7.96-.93-15.85-2.98-23.19-6.22-1.75-.77-3.28,1.81-1.51,2.59h0Z"/>
      </g>
    </g>
    <g id="Sun" class="cls-5">
      <ellipse class="cls-2" cx="255.15" cy="204.27" rx="88.06" ry="79.71"/>
    </g>
    <g id="Cloud">
      <g>
        <path class="cls-3" d="M118.37,239.69c-11.33-1.2-18.75-14.42-23.98-25.3-7.35-15.32-7.96-33.64-4.32-50.43,7.25-33.5,31.66-62.07,62.06-72.67s65.74-2.83,89.86,19.74c.89-7.75,5.54-14.33,10.2-20.32,12.48-16.03,26.73-31.21,44.53-39.61,17.79-8.4,39.78-8.94,55.69,3.07,20.78,15.69,25.01,49.79,12.32,73.44,20.41,1.23,39.63,15.81,47.57,36.08,2.6,6.63,4.06,14,2.75,21.05s-5.75,13.69-12.09,15.96c8.44-.16,16.88,3.81,22.5,10.6,2.74,3.31,4.86,7.4,5.11,11.83.69,12.25-12.11,19.82-23.12,23-26.04,7.54-53.3,8.25-80.25,8.91-13.32.33-26.71.65-39.89-1.43-21.53-3.39-41.68-13.05-62.34-20.4-20.66-7.35-43.03-12.43-64.06-6.41-15.54,4.45-26.55,14.55-42.55,12.86Z"/>
        <path class="cls-1" d="M118.37,238.19c-8.31-1-13.95-8.77-17.88-15.42-4.9-8.3-8.6-17.12-10.15-26.67-3.1-19.15,1.25-39.4,10.08-56.5,7.94-15.39,19.78-28.87,34.42-38.2,15.04-9.59,32.66-14.17,50.47-13.12s36.12,7.88,50.38,19.28c1.81,1.44,3.55,2.96,5.25,4.54,1.03.96,2.4.2,2.56-1.06,1.03-8.11,6.27-14.86,11.18-21.07s10-12.14,15.57-17.69c10.75-10.7,23.51-20.04,38.39-23.89,13.86-3.59,29.23-2.36,41.28,5.84,10.42,7.09,16.69,18.76,19.19,30.9,2.88,13.96,1.04,29.12-5.67,41.74-.55,1.04.15,2.18,1.3,2.26,12.37.81,24.03,6.56,32.86,15.16,9.63,9.37,17.29,23.37,16.38,37.13-.48,7.23-4.25,15.17-11.4,17.86-1.51.57-1.4,2.96.4,2.95,10.81-.1,22.68,7.08,25.61,17.94,2.68,9.93-5.32,17.41-13.42,21.43-4.74,2.35-9.88,3.71-15,4.95-6.29,1.53-12.66,2.71-19.06,3.62-12.91,1.83-25.96,2.55-38.99,2.99s-26.4,1.04-39.55.45c-13.03-.58-25.6-3.16-37.97-7.22-23.98-7.88-46.8-19.73-72.11-22.94-12.16-1.54-24.68-.86-36.27,3.35-9.87,3.59-19.03,9.71-29.56,11.25-2.74.4-5.52.41-8.27.14-1.92-.19-1.91,2.81,0,3,11.29,1.1,21.15-3.85,31.12-8.39,5.49-2.49,11.09-4.6,17.01-5.79,6.48-1.3,13.14-1.59,19.73-1.17,26.58,1.67,50.65,14.32,75.46,22.73,12.64,4.29,25.52,7.18,38.87,7.93,13.6.76,27.3.12,40.9-.33,13.41-.44,26.82-1.21,40.12-3.08,6.62-.93,13.2-2.15,19.69-3.74,5.28-1.3,10.51-2.76,15.4-5.18,7.97-3.95,15.7-10.95,15.42-20.57-.33-11.31-10.85-20.6-21.16-23.39-2.6-.7-5.29-1.03-7.97-1l.4,2.95c6.52-2.46,10.88-8.43,12.68-15.01,2.2-8.04.56-16.75-2.49-24.33-5.2-12.93-14.94-23.96-27.27-30.51-6.68-3.55-14.01-5.7-21.56-6.2l1.3,2.26c12.11-22.79,9.91-56.04-10.49-73.59-11.54-9.93-27.21-12.9-41.98-10.5-15.79,2.57-29.68,11.27-41.32,21.93-6.92,6.33-13.13,13.4-18.97,20.72s-11.58,14.69-12.77,24.09l2.56-1.06c-14.05-13.07-32.02-21.54-51.04-24.05s-37.5.96-53.88,10.02-28.98,22.26-38,37.92c-9.89,17.16-15.19,37.52-13.4,57.35.94,10.4,4.12,19.95,8.98,29.14,3.93,7.44,9.07,15.78,17.08,19.34,1.8.8,3.63,1.27,5.58,1.5s1.9-2.77,0-3Z"/>
      </g>
    </g>
    <g id="raindrop_3">
      <path class="cls-1" d="M334.93,277.66c10.69,16.02,20.9,32.35,30.59,48.99,2.75,4.71,5.45,9.45,8.11,14.21.94,1.68,3.54.17,2.59-1.51-9.41-16.8-19.32-33.32-29.73-49.52-2.95-4.59-5.94-9.15-8.97-13.69-1.07-1.6-3.67-.1-2.59,1.51h0Z"/>
      <path class="cls-1" d="M262.12,290.39c7.03,19.15,15.19,37.88,24.44,56.06.88,1.72,3.47.2,2.59-1.51-9.14-17.95-17.2-36.43-24.14-55.34-.66-1.8-3.56-1.02-2.89.8h0Z"/>
      <path class="cls-1" d="M190.02,257.39c3.96,18.04,9.94,35.62,17.78,52.34,2.23,4.75,4.61,9.43,7.14,14.03.93,1.69,3.52.18,2.59-1.51-8.8-16.03-15.8-33.02-20.83-50.61-1.42-4.97-2.68-9.99-3.79-15.05-.41-1.88-3.31-1.09-2.89.8h0Z"/>
    </g>
  </g>
</svg>