<?xml version="1.0" encoding="UTF-8"?>
<svg xmlns="http://www.w3.org/2000/svg" version="1.1" viewBox="0 0 50 53">
  <defs>
    <style>
      .cls-1 {
        fill: none;
        stroke: #033495;
        stroke-miterlimit: 10;
        stroke-width: .8px;
      }
    </style>
  </defs>
  <!-- Generator: Adobe Illustrator 28.6.0, SVG Export Plug-In . SVG Version: 1.2.0 Build 709)  -->
  <g>
    <g id="Layer_1">
      <g id="Layer_1-2" data-name="Layer_1">
        <g id="Layer_1-2">
          <g id="Sun">
            <ellipse class="cls-1" cx="27.4" cy="25.4" rx="12.6" ry="12.1"/>
          </g>
          <g id="ray1">
            <path class="cls-1" d="M3,23.3c2.8.4,5.4,1.3,7.9,2.6.2.1.5-.3.2-.4-2-1-4-1.8-6.2-2.3-.6-.1-1.2-.3-1.8-.4-.3,0-.4.4-.1.4h0Z"/>
            <path class="cls-1" d="M43.1,28.4c2.8.4,5.4,1.3,7.9,2.6.2.1.5-.3.2-.4-2-1-4-1.8-6.2-2.3-.6-.1-1.2-.3-1.8-.4-.3,0-.4.4-.1.4h0Z"/>
          </g>
          <g id="ray2">
            <path class="cls-1" d="M15.5,17.1c-1.1-1.7-2.2-3.3-3.5-4.9-.2-.2-.5.1-.3.3,1.2,1.5,2.4,3.1,3.4,4.8.2.2.5,0,.4-.2,0,0,0,0,0,0Z"/>
            <path class="cls-1" d="M41.9,42.3c-1.1-1.7-2.2-3.3-3.5-4.9-.2-.2-.5.1-.3.3,1.2,1.5,2.4,3.1,3.4,4.8.2.2.5,0,.4-.2h0Z"/>
          </g>
          <g id="ray3">
            <path class="cls-1" d="M24.8,12.4c.1-2.5,0-5.1-.1-7.6,0-.7-.1-1.4-.2-2.2,0-.3-.5-.3-.4,0,.3,2.5.4,5.1.4,7.6,0,.7,0,1.4,0,2.2,0,.3.4.3.4,0h0Z"/>
            <path class="cls-1" d="M29.7,49.8c.1-2.5,0-5.1-.1-7.6,0-.7-.1-1.4-.2-2.2,0-.3-.5-.3-.4,0,.3,2.5.4,5.1.4,7.6,0,.7,0,1.4,0,2.2,0,.3.4.3.4,0h0Z"/>
          </g>
          <g id="ray4">
            <path class="cls-1" d="M34.1,13.8c.9-1.9,1.9-3.7,3.1-5.4.2-.2-.2-.5-.4-.2-1.2,1.7-2.2,3.5-3.1,5.4-.1.3.3.5.4.2h0Z"/>
            <path class="cls-1" d="M18,44.1c.9-1.9,1.9-3.7,3.1-5.4.2-.2-.2-.5-.4-.2-1.2,1.7-2.2,3.5-3.1,5.4-.1.3.3.5.4.2h0Z"/>
          </g>
          <g id="ray5">
            <path class="cls-1" d="M39.6,19c2.3-1,4.5-2.3,6.5-3.8.6-.4,1.1-.9,1.7-1.4.2-.2,0-.5-.3-.3-1.9,1.6-3.9,3-6.1,4.2-.6.3-1.3.6-1.9.9-.3.1-.1.5.1.4h0Z"/>
            <path class="cls-1" d="M5.6,38.8c2.3-1,4.5-2.3,6.5-3.8.6-.4,1.1-.9,1.7-1.4.2-.2,0-.5-.3-.3-1.9,1.6-3.9,3-6.1,4.2-.6.3-1.3.6-1.9.9-.3.1-.1.5.1.4h0Z"/>
          </g>
        </g>
      </g>
    </g>
  </g>
</svg>